<svg width="16" height="16" viewBox="0 0 16 16" fill="none" xmlns="http://www.w3.org/2000/svg">
<path d="M8.00156 9.60457C7.7254 8.84839 7.13472 8.25815 6.39714 7.99992C6.76318 7.8618 7.09563 7.64727 7.37226 7.37063C7.64895 7.09398 7.86345 6.76157 8.00156 6.39551C8.20439 7.09621 8.84984 7.6681 9.60622 7.99992C9.23375 8.12668 8.89535 8.33727 8.61713 8.61551C8.3389 8.89368 8.12829 9.2321 8.00156 9.60457Z" fill="white"/>
<path d="M3.6146 3.61507C4.05782 3.17185 4.13232 2.52776 3.78102 2.17646C3.42971 1.82515 2.78562 1.89966 2.34241 2.34287C1.89919 2.78609 1.82468 3.43017 2.17599 3.78148C2.52729 4.13278 3.17138 4.05828 3.6146 3.61507Z" fill="white"/>
<path d="M13.657 13.657C14.1003 13.2138 14.1748 12.5697 13.8235 12.2185C13.4721 11.8672 12.8281 11.9416 12.3848 12.3849C11.9416 12.8281 11.8671 13.4722 12.2184 13.8235C12.5697 14.1747 13.2138 14.1003 13.657 13.657Z" fill="white"/>
<path d="M6.03519 6.03566C6.66225 5.40865 6.75326 4.48302 6.23844 3.96823C5.72367 3.45345 4.79804 3.54444 4.17101 4.17148C3.54397 4.79851 3.45298 5.72414 3.96777 6.23895C4.48255 6.75372 5.40818 6.66272 6.03519 6.03566Z" fill="white"/>
<path d="M11.8269 11.8267C12.4539 11.1996 12.5449 10.274 12.0301 9.75923C11.5153 9.24447 10.5897 9.33547 9.96268 9.96247C9.33562 10.5895 9.24466 11.5151 9.75943 12.0299C10.2742 12.5447 11.1998 12.4537 11.8269 11.8267Z" fill="white"/>
<path d="M13.8235 3.78166C14.1748 3.43036 14.1003 2.78627 13.6571 2.34306C13.2138 1.89984 12.5698 1.82533 12.2184 2.17664C11.8671 2.52794 11.9416 3.17203 12.3848 3.61524C12.8281 4.05846 13.4721 4.13297 13.8235 3.78166Z" fill="white"/>
<path d="M3.78101 13.8232C4.13232 13.4719 4.05781 12.8278 3.6146 12.3846C3.17138 11.9414 2.52729 11.8669 2.17599 12.2182C1.82469 12.5695 1.89919 13.2136 2.34241 13.6568C2.78562 14.1001 3.42971 14.1745 3.78101 13.8232Z" fill="white"/>
<path d="M12.0314 6.23895C12.5462 5.72414 12.4552 4.79851 11.8282 4.17148C11.2011 3.54444 10.2755 3.45344 9.76076 3.96823C9.24593 4.48302 9.33694 5.40865 9.964 6.03571C10.591 6.66271 11.5166 6.75371 12.0314 6.23895Z" fill="white"/>
<path d="M6.24109 12.0301C6.75586 11.5154 6.66485 10.5897 6.03785 9.96265C5.41078 9.33565 4.48516 9.24465 3.97037 9.75942C3.45558 10.2742 3.54658 11.1998 4.17361 11.8269C4.80065 12.4539 5.72628 12.5449 6.24109 12.0301Z" fill="white"/>
<path d="M7.99951 1.79915C8.62633 1.79915 9.13444 1.39639 9.13444 0.899576C9.13444 0.402754 8.62633 0 7.99951 0C7.37275 0 6.86458 0.402754 6.86458 0.899576C6.86458 1.39639 7.37275 1.79915 7.99951 1.79915Z" fill="white"/>
<path d="M7.99951 16.0002C8.62633 16.0002 9.13444 15.5974 9.13444 15.1006C9.13444 14.6038 8.62633 14.201 7.99951 14.201C7.37275 14.201 6.86458 14.6038 6.86458 15.1006C6.86458 15.5974 7.37275 16.0002 7.99951 16.0002Z" fill="white"/>
<path d="M15.1001 9.13506C15.5969 9.13506 15.9996 8.62694 15.9996 8.00018C15.9996 7.37335 15.5969 6.86523 15.1001 6.86523C14.6032 6.86523 14.2005 7.37335 14.2005 8.00018C14.2005 8.62694 14.6032 9.13506 15.1001 9.13506Z" fill="white"/>
<path d="M0.899573 9.13506C1.3964 9.13506 1.79915 8.62694 1.79915 8.00018C1.79915 7.37335 1.3964 6.86523 0.899573 6.86523C0.402754 6.86523 0 7.37335 0 8.00018C0 8.62694 0.402754 9.13506 0.899573 9.13506Z" fill="white"/>
</svg>
