<svg width="18" height="16" viewBox="0 0 18 16" fill="none" xmlns="http://www.w3.org/2000/svg">
<path d="M3.41716 0H14.3817V16H12.7722V8.67097H12.7564C12.5785 6.64539 10.9196 5.05806 8.89941 5.05806C6.87921 5.05806 5.22029 6.64539 5.04242 8.67097H5.02663V16H3.41716V0Z" fill="white"/>
<path d="M0.5 2.27097L1.15385 4.54194H1.7071V13.729C1.42932 13.729 1.20414 13.9601 1.20414 14.2452V14.8645H1.10355C0.825774 14.8645 0.600592 15.0956 0.600592 15.3806V16H6.23373V15.3806C6.23373 15.0956 6.00855 14.8645 5.73077 14.8645H5.63018V14.2452C5.63018 13.9601 5.405 13.729 5.12722 13.729H4.52367V2.27097H0.5Z" fill="white"/>
<path d="M12.8728 13.729C12.595 13.729 12.3698 13.9601 12.3698 14.2452V14.8645H12.2692C11.9915 14.8645 11.7663 15.0956 11.7663 15.3806V16H17.3994V15.3806C17.3994 15.0956 17.1742 14.8645 16.8965 14.8645H16.7959V14.2452C16.7959 13.9601 16.5707 13.729 16.2929 13.729V4.54194H16.8462L17.5 2.27097H13.4763V13.729H12.8728Z" fill="white"/>
</svg>
