<svg width="18" height="12" viewBox="0 0 18 12" fill="none" xmlns="http://www.w3.org/2000/svg">
<path fill-rule="evenodd" clip-rule="evenodd" d="M12.1237 3.51437C12.8032 2.9474 13.5614 2.73169 14.2885 2.78623C15.0641 2.84439 15.7818 3.20796 16.3179 3.73603C16.8539 4.26413 17.2222 4.97051 17.2812 5.73284C17.3406 6.50212 17.083 7.30784 16.4039 8.01492C16.3419 8.08008 16.2784 8.14432 16.2136 8.20778C13.1334 11.242 9.04188 11.25 9.00002 11.25H8.99981C8.97889 11.25 4.87441 11.2498 1.78627 8.20747L1.78561 8.2067C1.72185 8.14354 1.65907 8.07993 1.59723 8.016L1.59674 8.01538C0.917329 7.3089 0.659509 6.50338 0.718803 5.7341C0.777556 4.9719 1.14556 4.26545 1.68145 3.73716C2.21728 3.2089 2.93495 2.84504 3.71069 2.78663C4.43775 2.73187 5.19606 2.94733 5.87596 3.51402C5.94908 2.63997 6.32996 1.95971 6.88286 1.49204C7.47254 0.993245 8.24099 0.75 8.99983 0.75C9.75868 0.75 10.5271 0.993245 11.1168 1.49204C11.6697 1.95977 12.0506 2.64015 12.1237 3.51437ZM9.14084 10.9424L9.1407 10.9386H9.14095L9.14084 10.9424ZM8.85884 10.9424L8.85873 10.9386H8.85898L8.85884 10.9424ZM11.314 6.72919C11.2296 6.72919 11.2005 6.8491 11.2542 6.9126C11.3493 7.02509 11.4066 7.16982 11.4066 7.32773C11.4066 7.68602 11.1118 7.97647 10.7482 7.97647C10.3845 7.97647 10.0896 7.68602 10.0896 7.32773C10.0896 7.30856 10.0643 7.29903 10.0528 7.31457C9.94893 7.4551 9.87881 7.61286 9.85 7.77851C9.83379 7.87178 9.75683 7.94914 9.66012 7.94914H9.60671C9.4805 7.94914 9.37638 7.84826 9.395 7.72612C9.5227 6.88906 10.3601 6.28196 11.314 6.28196C12.2677 6.28196 13.1051 6.88906 13.2328 7.72612C13.2513 7.84826 13.1473 7.94914 13.0211 7.94914C12.8948 7.94914 12.7949 7.84775 12.7674 7.7272C12.6427 7.17853 12.0639 6.72919 11.314 6.72919ZM5.46639 7.32773C5.46639 7.30245 5.43313 7.28888 5.41747 7.309C5.30645 7.45172 5.23081 7.61336 5.19878 7.7837C5.17988 7.88429 5.09679 7.96798 4.99223 7.96798H4.95304C4.82682 7.96798 4.7227 7.86715 4.74131 7.74501C4.86894 6.90749 5.70642 6.30084 6.66022 6.30084C7.614 6.30084 8.45147 6.90749 8.57911 7.74501C8.59773 7.86715 8.4936 7.96798 8.36738 7.96798C8.24118 7.96798 8.14123 7.86668 8.11382 7.7461C7.98904 7.19709 7.41033 6.74808 6.66022 6.74808C6.59203 6.74808 6.56708 6.84239 6.61272 6.89194C6.71877 7.0071 6.78339 7.15999 6.78339 7.32773C6.78339 7.68602 6.48857 7.97647 6.12489 7.97647C5.76121 7.97647 5.46639 7.68602 5.46639 7.32773ZM9.73239 8.89229C9.82159 8.80489 9.95945 8.76243 10.0702 8.82157C10.181 8.88086 10.223 9.01829 10.1432 9.11402C9.8832 9.42547 9.46229 9.62296 8.99807 9.62296C8.5341 9.62296 8.11226 9.42763 7.85196 9.11371C7.77242 9.01782 7.81496 8.8804 7.92594 8.82157C8.03691 8.76274 8.17455 8.80582 8.26363 8.89321C8.43521 9.06183 8.6956 9.17579 8.99807 9.17579C9.29976 9.17579 9.56042 9.0606 9.73239 8.89229Z" fill="white"/>
</svg>
