<svg width="24" height="24" viewBox="0 0 24 24" fill="none" xmlns="http://www.w3.org/2000/svg">
<mask id="mask0_2809_446" style="mask-type:luminance" maskUnits="userSpaceOnUse" x="4" y="4" width="16" height="16">
<path d="M20 4H4V20H20V4Z" fill="white"/>
</mask>
<g mask="url(#mask0_2809_446)">
<path d="M12.0016 13.6046C11.7254 12.8484 11.1347 12.2582 10.3971 11.9999C10.7632 11.8618 11.0956 11.6473 11.3723 11.3706C11.649 11.094 11.8635 10.7616 12.0016 10.3955C12.2044 11.0962 12.8498 11.6681 13.6062 11.9999C13.2338 12.1267 12.8953 12.3373 12.6171 12.6155C12.3389 12.8937 12.1283 13.2321 12.0016 13.6046Z" fill="#F8FAFC"/>
<path d="M7.6146 7.61501C8.05782 7.17179 8.13232 6.5277 7.78102 6.17639C7.42971 5.82509 6.78562 5.8996 6.34241 6.34281C5.89919 6.78603 5.82468 7.43011 6.17599 7.78142C6.52729 8.13272 7.17138 8.05822 7.6146 7.61501Z" fill="#F8FAFC"/>
<path d="M17.657 17.657C18.1003 17.2137 18.1748 16.5697 17.8235 16.2184C17.4721 15.8671 16.8281 15.9416 16.3848 16.3848C15.9416 16.828 15.8671 17.4721 16.2184 17.8234C16.5697 18.1747 17.2138 18.1002 17.657 17.657Z" fill="#F8FAFC"/>
<path d="M10.0352 10.0356C10.6623 9.40859 10.7533 8.48296 10.2384 7.96817C9.72368 7.45339 8.79804 7.54438 8.17101 8.17142C7.54397 8.79845 7.45298 9.72408 7.96777 10.2389C8.48255 10.7537 9.40818 10.6627 10.0352 10.0356Z" fill="#F8FAFC"/>
<path d="M15.8269 15.8266C16.4539 15.1996 16.5449 14.2739 16.0301 13.7592C15.5153 13.2444 14.5897 13.3354 13.9627 13.9624C13.3356 14.5895 13.2447 15.5151 13.7594 16.0299C14.2742 16.5446 15.1998 16.4536 15.8269 15.8266Z" fill="#F8FAFC"/>
<path d="M17.8235 7.78166C18.1748 7.43036 18.1003 6.78627 17.6571 6.34306C17.2138 5.89984 16.5698 5.82533 16.2184 6.17664C15.8671 6.52794 15.9416 7.17203 16.3848 7.61524C16.8281 8.05846 17.4721 8.13297 17.8235 7.78166Z" fill="#F8FAFC"/>
<path d="M7.78102 17.8233C8.13232 17.472 8.05781 16.8279 7.6146 16.3847C7.17138 15.9414 6.52729 15.867 6.17599 16.2183C5.82469 16.5696 5.89919 17.2136 6.34241 17.6569C6.78562 18.1001 7.42971 18.1746 7.78102 17.8233Z" fill="#F8FAFC"/>
<path d="M16.0314 10.2389C16.5462 9.72408 16.4552 8.79845 15.8282 8.17142C15.2011 7.54438 14.2755 7.45338 13.7608 7.96817C13.2459 8.48295 13.3369 9.40859 13.964 10.0356C14.591 10.6626 15.5166 10.7536 16.0314 10.2389Z" fill="#F8FAFC"/>
<path d="M10.2411 16.0301C10.7559 15.5154 10.6648 14.5897 10.0378 13.9627C9.41078 13.3357 8.48516 13.2447 7.97037 13.7594C7.45558 14.2742 7.54658 15.1998 8.17361 15.8269C8.80065 16.4539 9.72628 16.5449 10.2411 16.0301Z" fill="#F8FAFC"/>
<path d="M11.9995 5.79915C12.6263 5.79915 13.1344 5.39639 13.1344 4.89958C13.1344 4.40275 12.6263 4 11.9995 4C11.3727 4 10.8646 4.40275 10.8646 4.89958C10.8646 5.39639 11.3727 5.79915 11.9995 5.79915Z" fill="#F8FAFC"/>
<path d="M11.9995 20.0001C12.6263 20.0001 13.1344 19.5973 13.1344 19.1005C13.1344 18.6037 12.6263 18.2009 11.9995 18.2009C11.3727 18.2009 10.8646 18.6037 10.8646 19.1005C10.8646 19.5973 11.3727 20.0001 11.9995 20.0001Z" fill="#F8FAFC"/>
<path d="M19.1001 13.1351C19.5969 13.1351 19.9996 12.6269 19.9996 12.0002C19.9996 11.3734 19.5969 10.8652 19.1001 10.8652C18.6032 10.8652 18.2005 11.3734 18.2005 12.0002C18.2005 12.6269 18.6032 13.1351 19.1001 13.1351Z" fill="#F8FAFC"/>
<path d="M4.89957 13.1351C5.3964 13.1351 5.79915 12.6269 5.79915 12.0002C5.79915 11.3734 5.3964 10.8652 4.89957 10.8652C4.40275 10.8652 4 11.3734 4 12.0002C4 12.6269 4.40275 13.1351 4.89957 13.1351Z" fill="#F8FAFC"/>
</g>
</svg>
